<?xml version="1.0" encoding="UTF-8" standalone="no"?>
<!DOCTYPE svg PUBLIC "-//W3C//DTD SVG 1.1//EN"
 "http://www.w3.org/Graphics/SVG/1.1/DTD/svg11.dtd">
<!-- Generated by graphviz version 2.40.1 (20161225.0304)
 -->
<!-- Title: %3 Pages: 1 -->
<svg width="1158pt" height="369pt"
 viewBox="0.00 0.00 1157.80 369.29" xmlns="http://www.w3.org/2000/svg" xmlns:xlink="http://www.w3.org/1999/xlink">
<g id="graph0" class="graph" transform="scale(1 1) rotate(0) translate(4 365.2934)">
<title>%3</title>
<polygon fill="#ffffff" stroke="transparent" points="-4,4 -4,-365.2934 1153.7958,-365.2934 1153.7958,4 -4,4"/>
<!-- Light -->
<g id="node1" class="node">
<title>Light</title>
<ellipse fill="#d3d3d3" stroke="#000000" cx="574.3979" cy="-297.8955" rx="29.8955" ry="29.8955"/>
<text text-anchor="middle" x="574.3979" y="-294.2955" font-family="Times,serif" font-size="12.00" fill="#000000">Light</text>
</g>
<!-- Growth -->
<g id="node12" class="node">
<title>Growth</title>
<ellipse fill="#add8e6" stroke="#add8e6" cx="266.3979" cy="-63.2488" rx="37.477" ry="37.477"/>
<text text-anchor="middle" x="266.3979" y="-59.6488" font-family="Times,serif" font-size="12.00" fill="#000000">Growth</text>
</g>
<!-- Light&#45;&gt;Growth -->
<g id="edge1" class="edge">
<title>Light&#45;&gt;Growth</title>
<path fill="none" stroke="#ff0000" stroke-width=".3309" d="M562.1394,-270.7724C555.5663,-258.511 546.5164,-244.5514 535.3979,-234.4975 453.7172,-160.6378 396.8721,-197.1455 312.3979,-126.4975 304.5864,-119.9646 297.4038,-111.8308 291.152,-103.595"/>
<polygon fill="#ff0000" stroke="#ff0000" stroke-width=".3309" points="293.9129,-101.4398 285.2216,-95.3807 288.2374,-105.5372 293.9129,-101.4398"/>
</g>
<!-- Morphogen0 V -->
<g id="node13" class="node">
<title>Morphogen0 V</title>
<ellipse fill="#add8e6" stroke="#add8e6" cx="384.3979" cy="-63.2488" rx="63.4985" ry="63.4985"/>
<text text-anchor="middle" x="384.3979" y="-59.6488" font-family="Times,serif" font-size="12.00" fill="#000000">Morphogen0 V</text>
</g>
<!-- Light&#45;&gt;Morphogen0 V -->
<g id="edge12" class="edge">
<title>Light&#45;&gt;Morphogen0 V</title>
<path fill="none" stroke="#ff0000" stroke-width=".4444" d="M559.8,-271.9471C552.8532,-260.2066 544.1609,-246.3394 535.3979,-234.4975 504.7292,-193.0532 466.2435,-149.5145 435.8018,-116.7091"/>
<polygon fill="#ff0000" stroke="#ff0000" stroke-width=".4444" points="438.0234,-113.9594 428.6437,-109.0327 432.9038,-118.7333 438.0234,-113.9594"/>
</g>
<!-- Morphogen1 V -->
<g id="node14" class="node">
<title>Morphogen1 V</title>
<ellipse fill="#add8e6" stroke="#add8e6" cx="528.3979" cy="-63.2488" rx="63.4985" ry="63.4985"/>
<text text-anchor="middle" x="528.3979" y="-59.6488" font-family="Times,serif" font-size="12.00" fill="#000000">Morphogen1 V</text>
</g>
<!-- Light&#45;&gt;Morphogen1 V -->
<g id="edge23" class="edge">
<title>Light&#45;&gt;Morphogen1 V</title>
<path fill="none" stroke="#006400" stroke-width=".2691" d="M568.665,-268.6517C562.1717,-235.5292 551.3513,-180.3344 542.5615,-135.4974"/>
<polygon fill="#006400" stroke="#006400" stroke-width=".2691" points="545.9633,-134.656 540.6048,-125.5161 539.094,-136.0027 545.9633,-134.656"/>
</g>
<!-- Signal0 out -->
<g id="node15" class="node">
<title>Signal0 out</title>
<ellipse fill="#add8e6" stroke="#add8e6" cx="659.3979" cy="-63.2488" rx="50.4128" ry="50.4128"/>
<text text-anchor="middle" x="659.3979" y="-59.6488" font-family="Times,serif" font-size="12.00" fill="#000000">Signal0 out</text>
</g>
<!-- Light&#45;&gt;Signal0 out -->
<g id="edge34" class="edge">
<title>Light&#45;&gt;Signal0 out</title>
<path fill="none" stroke="#006400" stroke-width=".4125" d="M584.6509,-269.5916C597.9938,-232.758 621.6237,-167.5264 638.7501,-120.2481"/>
<polygon fill="#006400" stroke="#006400" stroke-width=".4125" points="642.0765,-121.3416 642.1917,-110.7474 635.495,-118.9574 642.0765,-121.3416"/>
</g>
<!-- Signal1 out -->
<g id="node16" class="node">
<title>Signal1 out</title>
<ellipse fill="#add8e6" stroke="#add8e6" cx="777.3979" cy="-63.2488" rx="50.4128" ry="50.4128"/>
<text text-anchor="middle" x="777.3979" y="-59.6488" font-family="Times,serif" font-size="12.00" fill="#000000">Signal1 out</text>
</g>
<!-- Light&#45;&gt;Signal1 out -->
<g id="edge45" class="edge">
<title>Light&#45;&gt;Signal1 out</title>
<path fill="none" stroke="#ff0000" stroke-width=".2288" d="M588.4216,-271.3895C595.0871,-259.6674 603.5302,-245.9705 612.3979,-234.4975 653.5284,-181.2834 671.9001,-175.0919 718.3979,-126.4975 724.2181,-120.4149 730.3187,-113.9631 736.2977,-107.5955"/>
<polygon fill="#ff0000" stroke="#ff0000" stroke-width=".2288" points="738.9556,-109.8777 743.2367,-100.1863 733.8463,-105.0927 738.9556,-109.8777"/>
</g>
<!-- Signal2 out -->
<g id="node17" class="node">
<title>Signal2 out</title>
<ellipse fill="#add8e6" stroke="#add8e6" cx="895.3979" cy="-63.2488" rx="50.4128" ry="50.4128"/>
<text text-anchor="middle" x="895.3979" y="-59.6488" font-family="Times,serif" font-size="12.00" fill="#000000">Signal2 out</text>
</g>
<!-- Light&#45;&gt;Signal2 out -->
<g id="edge56" class="edge">
<title>Light&#45;&gt;Signal2 out</title>
<path fill="none" stroke="#ff0000" stroke-width=".4486" d="M586.3651,-270.4402C592.7256,-258.2528 601.5007,-244.4486 612.3979,-234.4975 694.0124,-159.9698 747.3994,-192.0305 836.3979,-126.4975 843.2639,-121.4418 849.9867,-115.5173 856.2921,-109.358"/>
<polygon fill="#ff0000" stroke="#ff0000" stroke-width=".4486" points="858.9599,-111.6372 863.4858,-102.0577 853.9738,-106.724 858.9599,-111.6372"/>
</g>
<!-- Collection -->
<g id="node2" class="node">
<title>Collection</title>
<ellipse fill="#d3d3d3" stroke="#000000" cx="668.3979" cy="-297.8955" rx="46.8276" ry="46.8276"/>
<text text-anchor="middle" x="668.3979" y="-294.2955" font-family="Times,serif" font-size="12.00" fill="#000000">Collection</text>
</g>
<!-- Collection&#45;&gt;Growth -->
<g id="edge2" class="edge">
<title>Collection&#45;&gt;Growth</title>
<path fill="none" stroke="#ff0000" stroke-width=".6703" d="M640.954,-259.8597C632.8908,-250.615 623.4975,-241.4122 613.3979,-234.4975 496.1226,-154.2044 426.1226,-211.7453 312.3979,-126.4975 304.2497,-120.3897 296.9277,-112.432 290.647,-104.2325"/>
<polygon fill="#ff0000" stroke="#ff0000" stroke-width=".6703" points="293.4083,-102.0776 284.7215,-96.0121 287.7298,-106.1709 293.4083,-102.0776"/>
</g>
<!-- Collection&#45;&gt;Morphogen0 V -->
<g id="edge13" class="edge">
<title>Collection&#45;&gt;Morphogen0 V</title>
<path fill="none" stroke="#ff0000" stroke-width=".2422" d="M639.3474,-261.211C631.3667,-252.0549 622.4151,-242.5572 613.3979,-234.4975 550.2519,-178.0571 523.2181,-178.5361 456.3979,-126.4975 450.7123,-122.0697 444.8896,-117.3296 439.139,-112.5098"/>
<polygon fill="#ff0000" stroke="#ff0000" stroke-width=".2422" points="441.2506,-109.7114 431.3614,-105.9095 436.7213,-115.0486 441.2506,-109.7114"/>
</g>
<!-- Collection&#45;&gt;Morphogen1 V -->
<g id="edge24" class="edge">
<title>Collection&#45;&gt;Morphogen1 V</title>
<path fill="none" stroke="#ff0000" stroke-width=".2862" d="M644.3311,-257.5583C622.8725,-221.5927 591.1033,-168.346 566.2453,-126.6827"/>
<polygon fill="#ff0000" stroke="#ff0000" stroke-width=".2862" points="569.1814,-124.7727 561.0519,-117.9784 563.17,-128.3594 569.1814,-124.7727"/>
</g>
<!-- Collection&#45;&gt;Signal0 out -->
<g id="edge35" class="edge">
<title>Collection&#45;&gt;Signal0 out</title>
<path fill="none" stroke="#ff0000" stroke-width=".3135" d="M666.6091,-251.2563C665.2037,-214.6172 663.236,-163.3153 661.711,-123.5559"/>
<polygon fill="#ff0000" stroke="#ff0000" stroke-width=".3135" points="665.2043,-123.311 661.3235,-113.4525 658.2095,-123.5793 665.2043,-123.311"/>
</g>
<!-- Collection&#45;&gt;Signal1 out -->
<g id="edge46" class="edge">
<title>Collection&#45;&gt;Signal1 out</title>
<path fill="none" stroke="#ff0000" stroke-width=".2016" d="M688.137,-255.4027C705.9891,-216.972 732.3816,-160.1564 751.8402,-118.2675"/>
<polygon fill="#ff0000" stroke="#ff0000" stroke-width=".2016" points="755.0907,-119.5777 756.1295,-109.0339 748.7422,-116.6286 755.0907,-119.5777"/>
</g>
<!-- Collection&#45;&gt;Signal2 out -->
<g id="edge57" class="edge">
<title>Collection&#45;&gt;Signal2 out</title>
<path fill="none" stroke="#ff0000" stroke-width=".6417" d="M698.6601,-261.8325C706.5499,-252.7606 715.1551,-243.1474 723.3979,-234.4975 771.3238,-184.2046 787.5728,-175.918 836.3979,-126.4975 842.3146,-120.5087 848.4694,-114.1096 854.4743,-107.7671"/>
<polygon fill="#ff0000" stroke="#ff0000" stroke-width=".6417" points="857.1261,-110.0563 861.4313,-100.3756 852.0288,-105.2586 857.1261,-110.0563"/>
</g>
<!-- Energy -->
<g id="node3" class="node">
<title>Energy</title>
<ellipse fill="#d3d3d3" stroke="#000000" cx="768.3979" cy="-297.8955" rx="35.8357" ry="35.8357"/>
<text text-anchor="middle" x="768.3979" y="-294.2955" font-family="Times,serif" font-size="12.00" fill="#000000">Energy</text>
</g>
<!-- Energy&#45;&gt;Growth -->
<g id="edge3" class="edge">
<title>Energy&#45;&gt;Growth</title>
<path fill="none" stroke="#006400" stroke-width=".613" d="M752.3597,-265.8304C745.2195,-254.4425 735.8167,-242.4822 724.3979,-234.4975 569.2651,-126.0195 468.7199,-233.2549 312.3979,-126.4975 303.9045,-120.6971 296.4099,-112.7915 290.0666,-104.5345"/>
<polygon fill="#006400" stroke="#006400" stroke-width=".613" points="292.7824,-102.3155 284.1128,-96.2253 287.0923,-106.3926 292.7824,-102.3155"/>
</g>
<!-- Energy&#45;&gt;Morphogen0 V -->
<g id="edge14" class="edge">
<title>Energy&#45;&gt;Morphogen0 V</title>
<path fill="none" stroke="#006400" stroke-width=".21" d="M751.5922,-266.252C744.4129,-255.0497 735.1836,-243.1056 724.3979,-234.4975 624.0267,-154.3909 565.7486,-193.8317 456.3979,-126.4975 450.2616,-122.719 444.1407,-118.4086 438.2056,-113.8543"/>
<polygon fill="#006400" stroke="#006400" stroke-width=".21" points="440.2481,-111.0068 430.2435,-107.52 435.8901,-116.4847 440.2481,-111.0068"/>
</g>
<!-- Energy&#45;&gt;Morphogen1 V -->
<g id="edge25" class="edge">
<title>Energy&#45;&gt;Morphogen1 V</title>
<path fill="none" stroke="#ff0000" stroke-width=".5985" d="M749.4698,-267.4003C742.1799,-256.5709 733.4266,-244.5766 724.3979,-234.4975 675.6344,-180.0608 655.4071,-174.6143 600.3979,-126.4975 594.9738,-121.753 589.3241,-116.8034 583.6803,-111.854"/>
<polygon fill="#ff0000" stroke="#ff0000" stroke-width=".5985" points="585.8351,-109.0884 576.0098,-105.1242 581.2185,-114.3502 585.8351,-109.0884"/>
</g>
<!-- Energy&#45;&gt;Signal0 out -->
<g id="edge36" class="edge">
<title>Energy&#45;&gt;Signal0 out</title>
<path fill="none" stroke="#006400" stroke-width=".2488" d="M753.2419,-265.2688C735.5654,-227.2161 706.0651,-163.7102 684.8551,-118.051"/>
<polygon fill="#006400" stroke="#006400" stroke-width=".2488" points="687.9833,-116.4771 680.596,-108.8824 681.6348,-119.4262 687.9833,-116.4771"/>
</g>
<!-- Energy&#45;&gt;Signal1 out -->
<g id="edge47" class="edge">
<title>Energy&#45;&gt;Signal1 out</title>
<path fill="none" stroke="#006400" stroke-width=".3186" d="M769.7746,-262.0023C771.1833,-225.2765 773.3976,-167.5446 775.0776,-123.7445"/>
<polygon fill="#006400" stroke="#006400" stroke-width=".3186" points="778.5847,-123.6238 775.4706,-113.4969 771.5898,-123.3554 778.5847,-123.6238"/>
</g>
<!-- Energy&#45;&gt;Signal2 out -->
<g id="edge58" class="edge">
<title>Energy&#45;&gt;Signal2 out</title>
<path fill="none" stroke="#ff0000" stroke-width=".299" d="M785.5257,-266.25C806.2819,-227.9006 841.5723,-162.6975 866.5509,-116.5469"/>
<polygon fill="#ff0000" stroke="#ff0000" stroke-width=".299" points="869.7198,-118.0449 871.4017,-107.5844 863.5637,-114.7129 869.7198,-118.0449"/>
</g>
<!-- Gravity -->
<g id="node4" class="node">
<title>Gravity</title>
<ellipse fill="#d3d3d3" stroke="#000000" cx="859.3979" cy="-297.8955" rx="37.4687" ry="37.4687"/>
<text text-anchor="middle" x="859.3979" y="-294.2955" font-family="Times,serif" font-size="12.00" fill="#000000">Gravity</text>
</g>
<!-- Gravity&#45;&gt;Growth -->
<g id="edge4" class="edge">
<title>Gravity&#45;&gt;Growth</title>
<path fill="none" stroke="#006400" stroke-width=".4138" d="M842.1011,-264.8946C834.6803,-253.6757 825.0175,-242.0724 813.3979,-234.4975 622.5824,-110.1034 503.283,-250.7848 312.3979,-126.4975 303.7788,-120.8856 296.2329,-113.0569 289.8797,-104.8148"/>
<polygon fill="#006400" stroke="#006400" stroke-width=".4138" points="292.5955,-102.5956 283.9286,-96.5017 286.9036,-106.6702 292.5955,-102.5956"/>
</g>
<!-- Gravity&#45;&gt;Morphogen0 V -->
<g id="edge15" class="edge">
<title>Gravity&#45;&gt;Morphogen0 V</title>
<path fill="none" stroke="#ff0000" stroke-width=".3264" d="M841.5358,-265.0729C834.1094,-254.0082 824.5887,-242.4604 813.3979,-234.4975 678.3326,-138.391 601.2912,-207.0274 456.3979,-126.4975 449.9991,-122.9411 443.6729,-118.7388 437.5834,-114.2177"/>
<polygon fill="#ff0000" stroke="#ff0000" stroke-width=".3264" points="439.4841,-111.262 429.4416,-107.8856 435.1866,-116.7876 439.4841,-111.262"/>
</g>
<!-- Gravity&#45;&gt;Morphogen1 V -->
<g id="edge26" class="edge">
<title>Gravity&#45;&gt;Morphogen1 V</title>
<path fill="none" stroke="#006400" stroke-width=".2056" d="M840.4975,-265.792C833.0266,-254.9264 823.7443,-243.3222 813.3979,-234.4975 732.642,-165.619 688.2965,-185.9923 600.3979,-126.4975 594.4301,-122.4582 588.4206,-117.9751 582.5545,-113.3142"/>
<polygon fill="#006400" stroke="#006400" stroke-width=".2056" points="584.6219,-110.4838 574.6613,-106.873 580.1962,-115.9072 584.6219,-110.4838"/>
</g>
<!-- Gravity&#45;&gt;Signal0 out -->
<g id="edge37" class="edge">
<title>Gravity&#45;&gt;Signal0 out</title>
<path fill="none" stroke="#ff0000" stroke-width=".203" d="M838.0367,-267.0977C830.4834,-256.5788 821.7782,-244.8596 813.3979,-234.4975 793.4559,-209.8395 739.0993,-149.9886 700.6339,-108.0259"/>
<polygon fill="#ff0000" stroke="#ff0000" stroke-width=".203" points="702.9876,-105.4142 693.6483,-100.4112 697.8293,-110.1462 702.9876,-105.4142"/>
</g>
<!-- Gravity&#45;&gt;Signal1 out -->
<g id="edge48" class="edge">
<title>Gravity&#45;&gt;Signal1 out</title>
<path fill="none" stroke="#006400" stroke-width=".2918" d="M847.0329,-262.5124C833.8612,-224.821 812.8141,-164.5936 797.303,-120.2081"/>
<polygon fill="#006400" stroke="#006400" stroke-width=".2918" points="800.5865,-118.9943 793.9834,-110.7087 793.9783,-121.3036 800.5865,-118.9943"/>
</g>
<!-- Gravity&#45;&gt;Signal2 out -->
<g id="edge59" class="edge">
<title>Gravity&#45;&gt;Signal2 out</title>
<path fill="none" stroke="#ff0000" stroke-width=".3748" d="M865.0625,-260.9738C870.7389,-223.9756 879.5687,-166.4232 886.2412,-122.9319"/>
<polygon fill="#ff0000" stroke="#ff0000" stroke-width=".3748" points="889.7017,-123.4562 887.7587,-113.041 882.7826,-122.3946 889.7017,-123.4562"/>
</g>
<!-- Curvature -->
<g id="node5" class="node">
<title>Curvature</title>
<ellipse fill="#d3d3d3" stroke="#000000" cx="959.3979" cy="-297.8955" rx="45.4861" ry="45.4861"/>
<text text-anchor="middle" x="959.3979" y="-294.2955" font-family="Times,serif" font-size="12.00" fill="#000000">Curvature</text>
</g>
<!-- Curvature&#45;&gt;Growth -->
<g id="edge5" class="edge">
<title>Curvature&#45;&gt;Growth</title>
<path fill="none" stroke="#006400" stroke-width=".2603" d="M934.3968,-260.0278C926.248,-250.3256 916.4221,-240.8493 905.3979,-234.4975 673.2793,-100.7572 539.2174,-269.0404 312.3979,-126.4975 303.6035,-120.9707 295.9573,-113.099 289.5586,-104.7775"/>
<polygon fill="#006400" stroke="#006400" stroke-width=".2603" points="292.2293,-102.4939 283.5793,-96.3761 286.5262,-106.5528 292.2293,-102.4939"/>
</g>
<!-- Curvature&#45;&gt;Morphogen0 V -->
<g id="edge16" class="edge">
<title>Curvature&#45;&gt;Morphogen0 V</title>
<path fill="none" stroke="#ff0000" stroke-width=".3756" d="M933.8833,-260.0921C925.7872,-250.5096 916.117,-241.0793 905.3979,-234.4975 730.491,-127.1011 638.601,-220.9881 456.3979,-126.4975 449.8991,-123.1272 443.5073,-119.0471 437.3777,-114.6006"/>
<polygon fill="#ff0000" stroke="#ff0000" stroke-width=".3756" points="439.2655,-111.6381 429.1963,-108.3424 435.0126,-117.198 439.2655,-111.6381"/>
</g>
<!-- Curvature&#45;&gt;Morphogen1 V -->
<g id="edge27" class="edge">
<title>Curvature&#45;&gt;Morphogen1 V</title>
<path fill="none" stroke="#ff0000" stroke-width=".2339" d="M933.4158,-260.8108C925.3151,-251.2353 915.7595,-241.6289 905.3979,-234.4975 786.94,-152.9682 724.432,-199.2633 600.3979,-126.4975 594.0836,-122.7932 587.8128,-118.4937 581.7572,-113.9132"/>
<polygon fill="#ff0000" stroke="#ff0000" stroke-width=".2339" points="583.6694,-110.9639 573.6491,-107.5224 579.3362,-116.4615 583.6694,-110.9639"/>
</g>
<!-- Curvature&#45;&gt;Signal0 out -->
<g id="edge38" class="edge">
<title>Curvature&#45;&gt;Signal0 out</title>
<path fill="none" stroke="#006400" stroke-width=".2987" d="M932.2249,-261.6823C924.1807,-252.2212 914.9517,-242.4554 905.3979,-234.4975 831.6529,-173.0718 793.5105,-186.2433 718.3979,-126.4975 711.8094,-121.2569 705.277,-115.2783 699.0921,-109.1362"/>
<polygon fill="#006400" stroke="#006400" stroke-width=".2987" points="701.5004,-106.5928 692.0088,-101.8854 696.4931,-111.4844 701.5004,-106.5928"/>
</g>
<!-- Curvature&#45;&gt;Signal1 out -->
<g id="edge49" class="edge">
<title>Curvature&#45;&gt;Signal1 out</title>
<path fill="none" stroke="#006400" stroke-width=".4311" d="M931.5579,-262.0023C900.2478,-221.6352 849.2536,-155.8899 814.5604,-111.1612"/>
<polygon fill="#006400" stroke="#006400" stroke-width=".4311" points="817.1751,-108.8214 808.2806,-103.0648 811.6439,-113.1116 817.1751,-108.8214"/>
</g>
<!-- Curvature&#45;&gt;Signal2 out -->
<g id="edge60" class="edge">
<title>Curvature&#45;&gt;Signal2 out</title>
<path fill="none" stroke="#006400" stroke-width=".3466" d="M947.4351,-254.0355C937.2409,-216.6598 922.507,-162.6402 911.3175,-121.6154"/>
<polygon fill="#006400" stroke="#006400" stroke-width=".3466" points="914.6346,-120.4759 908.6265,-111.7493 907.8813,-122.3179 914.6346,-120.4759"/>
</g>
<!-- Morphogen0 U -->
<g id="node6" class="node">
<title>Morphogen0 U</title>
<ellipse fill="#d3d3d3" stroke="#000000" cx="1086.3979" cy="-297.8955" rx="63.296" ry="63.296"/>
<text text-anchor="middle" x="1086.3979" y="-294.2955" font-family="Times,serif" font-size="12.00" fill="#000000">Morphogen0 U</text>
</g>
<!-- Morphogen0 U&#45;&gt;Growth -->
<g id="edge6" class="edge">
<title>Morphogen0 U&#45;&gt;Growth</title>
<path fill="none" stroke="#ff0000" stroke-width=".2042" d="M1041.6582,-252.3452C1032.8758,-245.4308 1023.2973,-239.0855 1013.3979,-234.4975 727.39,-101.9445 581.5635,-290.573 312.3979,-126.4975 303.5289,-121.0912 295.8527,-113.268 289.4486,-104.9552"/>
<polygon fill="#ff0000" stroke="#ff0000" stroke-width=".2042" points="292.1192,-102.6713 283.4713,-96.5505 286.4147,-106.7283 292.1192,-102.6713"/>
</g>
<!-- Morphogen0 U&#45;&gt;Morphogen0 V -->
<g id="edge17" class="edge">
<title>Morphogen0 U&#45;&gt;Morphogen0 V</title>
<path fill="none" stroke="#006400" stroke-width=".4319" d="M1041.507,-252.6633C1032.7407,-245.715 1023.2067,-239.2759 1013.3979,-234.4975 786.7008,-124.0612 682.7812,-237.5758 456.3979,-126.4975 449.8257,-123.2728 443.3857,-119.2881 437.2267,-114.9"/>
<polygon fill="#006400" stroke="#006400" stroke-width=".4319" points="439.1055,-111.9329 429.0161,-108.6996 434.887,-117.5191 439.1055,-111.9329"/>
</g>
<!-- Morphogen0 U&#45;&gt;Morphogen1 V -->
<g id="edge28" class="edge">
<title>Morphogen0 U&#45;&gt;Morphogen1 V</title>
<path fill="none" stroke="#006400" stroke-width=".4209" d="M1041.2423,-253.1853C1032.5041,-246.1814 1023.0482,-239.5885 1013.3979,-234.4975 845.5899,-145.9701 767.9545,-215.5001 600.3979,-126.4975 593.9327,-123.0633 587.5629,-118.9412 581.4467,-114.4691"/>
<polygon fill="#006400" stroke="#006400" stroke-width=".4209" points="583.3388,-111.5088 573.2786,-108.1855 579.0706,-117.057 583.3388,-111.5088"/>
</g>
<!-- Morphogen0 U&#45;&gt;Signal0 out -->
<g id="edge39" class="edge">
<title>Morphogen0 U&#45;&gt;Signal0 out</title>
<path fill="none" stroke="#ff0000" stroke-width=".6186" d="M1040.4179,-253.6155C1031.8393,-246.6484 1022.6505,-239.9565 1013.3979,-234.4975 893.1462,-163.5494 834.7601,-203.6596 718.3979,-126.4975 711.2918,-121.7853 704.4354,-116.0519 698.0675,-109.982"/>
<polygon fill="#ff0000" stroke="#ff0000" stroke-width=".6186" points="700.3762,-107.3409 690.831,-102.7431 695.4256,-112.2898 700.3762,-107.3409"/>
</g>
<!-- Morphogen0 U&#45;&gt;Signal1 out -->
<g id="edge50" class="edge">
<title>Morphogen0 U&#45;&gt;Signal1 out</title>
<path fill="none" stroke="#006400" stroke-width=".2231" d="M1039.4368,-255.1057C1030.9672,-247.973 1022.0691,-240.8396 1013.3979,-234.4975 939.0156,-180.0943 907.8223,-184.7299 836.3979,-126.4975 829.8731,-121.1778 823.3765,-115.1547 817.2087,-108.9915"/>
<polygon fill="#006400" stroke="#006400" stroke-width=".2231" points="819.6201,-106.451 810.1373,-101.7258 814.6037,-111.3332 819.6201,-106.451"/>
</g>
<!-- Morphogen0 U&#45;&gt;Signal2 out -->
<g id="edge61" class="edge">
<title>Morphogen0 U&#45;&gt;Signal2 out</title>
<path fill="none" stroke="#006400" stroke-width=".3685" d="M1046.3581,-248.7058C1013.1311,-207.8859 966.1968,-150.2264 933.5139,-110.0748"/>
<polygon fill="#006400" stroke="#006400" stroke-width=".3685" points="936.2029,-107.8341 927.1756,-102.2881 930.7741,-112.2532 936.2029,-107.8341"/>
</g>
<!-- Morphogen1 U -->
<g id="node7" class="node">
<title>Morphogen1 U</title>
<ellipse fill="#d3d3d3" stroke="#000000" cx="63.3979" cy="-297.8955" rx="63.296" ry="63.296"/>
<text text-anchor="middle" x="63.3979" y="-294.2955" font-family="Times,serif" font-size="12.00" fill="#000000">Morphogen1 U</text>
</g>
<!-- Morphogen1 U&#45;&gt;Growth -->
<g id="edge7" class="edge">
<title>Morphogen1 U&#45;&gt;Growth</title>
<path fill="none" stroke="#006400" stroke-width=".4966" d="M104.9679,-249.845C143.573,-205.2215 200.1989,-139.7679 235.1058,-99.4192"/>
<polygon fill="#006400" stroke="#006400" stroke-width=".4966" points="237.89,-101.5504 241.7858,-91.6978 232.5962,-96.9705 237.89,-101.5504"/>
</g>
<!-- Morphogen1 U&#45;&gt;Morphogen0 V -->
<g id="edge18" class="edge">
<title>Morphogen1 U&#45;&gt;Morphogen0 V</title>
<path fill="none" stroke="#006400" stroke-width=".2349" d="M110.0578,-254.7378C118.2994,-247.7206 126.9499,-240.7208 135.3979,-234.4975 209.5939,-179.8404 238.17,-181.1113 312.3979,-126.4975 318.2025,-122.2268 324.1039,-117.5907 329.9032,-112.8351"/>
<polygon fill="#006400" stroke="#006400" stroke-width=".2349" points="332.2975,-115.3956 337.7295,-106.2992 327.8105,-110.0228 332.2975,-115.3956"/>
</g>
<!-- Morphogen1 U&#45;&gt;Morphogen1 V -->
<g id="edge29" class="edge">
<title>Morphogen1 U&#45;&gt;Morphogen1 V</title>
<path fill="none" stroke="#006400" stroke-width=".2171" d="M108.5671,-253.3918C117.0483,-246.4496 126.1648,-239.824 135.3979,-234.4975 265.7825,-159.2803 325.9694,-201.6386 456.3979,-126.4975 462.7413,-122.8431 469.0311,-118.5764 475.0983,-114.0159"/>
<polygon fill="#006400" stroke="#006400" stroke-width=".2171" points="477.5113,-116.5714 483.218,-107.6449 473.1901,-111.0643 477.5113,-116.5714"/>
</g>
<!-- Morphogen1 U&#45;&gt;Signal0 out -->
<g id="edge40" class="edge">
<title>Morphogen1 U&#45;&gt;Signal0 out</title>
<path fill="none" stroke="#006400" stroke-width=".2172" d="M108.1524,-252.6312C116.6796,-245.7734 125.9191,-239.3732 135.3979,-234.4975 324.0691,-137.4497 416.7166,-232.6873 600.3979,-126.4975 607.8731,-122.176 614.9668,-116.6049 621.4733,-110.5636"/>
<polygon fill="#006400" stroke="#006400" stroke-width=".2172" points="624.1713,-112.8183 628.8293,-103.3023 619.2537,-107.8366 624.1713,-112.8183"/>
</g>
<!-- Morphogen1 U&#45;&gt;Signal1 out -->
<g id="edge51" class="edge">
<title>Morphogen1 U&#45;&gt;Signal1 out</title>
<path fill="none" stroke="#006400" stroke-width=".469" d="M107.9711,-252.2689C116.5186,-245.4514 125.8117,-239.1585 135.3979,-234.4975 372.3889,-119.2681 487.3472,-253.2183 718.3979,-126.4975 725.9685,-122.3454 733.1148,-116.8676 739.6454,-110.8692"/>
<polygon fill="#006400" stroke="#006400" stroke-width=".469" points="742.3303,-113.1382 747.0175,-103.6366 737.4281,-108.1414 742.3303,-113.1382"/>
</g>
<!-- Morphogen1 U&#45;&gt;Signal2 out -->
<g id="edge62" class="edge">
<title>Morphogen1 U&#45;&gt;Signal2 out</title>
<path fill="none" stroke="#ff0000" stroke-width=".3857" d="M107.8538,-252.0229C116.4143,-245.2327 125.7422,-239.0127 135.3979,-234.4975 420.9512,-100.9678 557.7415,-273.8796 836.3979,-126.4975 844.0306,-122.4606 851.211,-117.0463 857.7573,-111.077"/>
<polygon fill="#ff0000" stroke="#ff0000" stroke-width=".3857" points="860.4332,-113.3558 865.1399,-103.8638 855.5412,-108.3489 860.4332,-113.3558"/>
</g>
<!-- Signal0 in -->
<g id="node8" class="node">
<title>Signal0 in</title>
<ellipse fill="#d3d3d3" stroke="#000000" cx="190.3979" cy="-297.8955" rx="45.9267" ry="45.9267"/>
<text text-anchor="middle" x="190.3979" y="-294.2955" font-family="Times,serif" font-size="12.00" fill="#000000">Signal0 in</text>
</g>
<!-- Signal0 in&#45;&gt;Growth -->
<g id="edge8" class="edge">
<title>Signal0 in&#45;&gt;Growth</title>
<path fill="none" stroke="#ff0000" stroke-width=".5947" d="M204.6038,-254.0355C218.0476,-212.5284 238.1399,-150.4942 251.7326,-108.5272"/>
<polygon fill="#ff0000" stroke="#ff0000" stroke-width=".5947" points="255.118,-109.4336 254.8697,-98.8417 248.4586,-107.2767 255.118,-109.4336"/>
</g>
<!-- Signal0 in&#45;&gt;Morphogen0 V -->
<g id="edge19" class="edge">
<title>Signal0 in&#45;&gt;Morphogen0 V</title>
<path fill="none" stroke="#006400" stroke-width=".2852" d="M219.8623,-262.2577C251.0605,-224.5229 300.7625,-164.4073 337.3844,-120.1126"/>
<polygon fill="#006400" stroke="#006400" stroke-width=".2852" points="340.158,-122.2506 343.8325,-112.3134 334.7631,-117.7902 340.158,-122.2506"/>
</g>
<!-- Signal0 in&#45;&gt;Morphogen1 V -->
<g id="edge30" class="edge">
<title>Signal0 in&#45;&gt;Morphogen1 V</title>
<path fill="none" stroke="#ff0000" stroke-width=".506" d="M218.1844,-261.0494C226.3103,-251.6923 235.6488,-242.1367 245.3979,-234.4975 328.3214,-169.5208 369.2681,-185.7147 456.3979,-126.4975 462.358,-122.4468 468.3624,-117.9562 474.2254,-113.2906"/>
<polygon fill="#ff0000" stroke="#ff0000" stroke-width=".506" points="476.5855,-115.882 482.1154,-106.8448 472.1568,-110.4611 476.5855,-115.882"/>
</g>
<!-- Signal0 in&#45;&gt;Signal0 out -->
<g id="edge41" class="edge">
<title>Signal0 in&#45;&gt;Signal0 out</title>
<path fill="none" stroke="#006400" stroke-width=".357" d="M217.0421,-260.181C225.2312,-250.7141 234.887,-241.3206 245.3979,-234.4975 383.7265,-144.7032 460.4725,-213.7827 600.3979,-126.4975 607.6323,-121.9847 614.5601,-116.3622 620.9614,-110.3443"/>
<polygon fill="#006400" stroke="#006400" stroke-width=".357" points="623.5876,-112.669 628.2208,-103.141 618.6571,-107.7001 623.5876,-112.669"/>
</g>
<!-- Signal0 in&#45;&gt;Signal1 out -->
<g id="edge52" class="edge">
<title>Signal0 in&#45;&gt;Signal1 out</title>
<path fill="none" stroke="#ff0000" stroke-width=".3423" d="M216.4461,-260.0133C224.6928,-250.4299 234.527,-241.019 245.3979,-234.4975 430.3095,-123.5692 531.5159,-234.0731 718.3979,-126.4975 725.8812,-122.1899 732.9793,-116.6265 739.4878,-110.5887"/>
<polygon fill="#ff0000" stroke="#ff0000" stroke-width=".3423" points="742.1848,-112.8447 746.8452,-103.3299 737.2684,-107.8617 742.1848,-112.8447"/>
</g>
<!-- Signal0 in&#45;&gt;Signal2 out -->
<g id="edge63" class="edge">
<title>Signal0 in&#45;&gt;Signal2 out</title>
<path fill="none" stroke="#006400" stroke-width=".2702" d="M216.2631,-259.7005C224.5079,-250.114 234.387,-240.7797 245.3979,-234.4975 477.3216,-102.1752 602.1257,-254.6158 836.3979,-126.4975 843.9736,-122.3546 851.1226,-116.8819 857.6545,-110.8857"/>
<polygon fill="#006400" stroke="#006400" stroke-width=".2702" points="860.3387,-113.1556 865.0274,-103.6547 855.4373,-108.1579 860.3387,-113.1556"/>
</g>
<!-- Signal1 in -->
<g id="node9" class="node">
<title>Signal1 in</title>
<ellipse fill="#d3d3d3" stroke="#000000" cx="300.3979" cy="-297.8955" rx="45.9267" ry="45.9267"/>
<text text-anchor="middle" x="300.3979" y="-294.2955" font-family="Times,serif" font-size="12.00" fill="#000000">Signal1 in</text>
</g>
<!-- Signal1 in&#45;&gt;Growth -->
<g id="edge9" class="edge">
<title>Signal1 in&#45;&gt;Growth</title>
<path fill="none" stroke="#006400" stroke-width=".3092" d="M293.8021,-252.375C287.8738,-211.4618 279.2028,-151.6201 273.2092,-110.2562"/>
<polygon fill="#006400" stroke="#006400" stroke-width=".3092" points="276.6444,-109.5556 271.7464,-100.1608 269.7167,-110.5594 276.6444,-109.5556"/>
</g>
<!-- Signal1 in&#45;&gt;Morphogen0 V -->
<g id="edge20" class="edge">
<title>Signal1 in&#45;&gt;Morphogen0 V</title>
<path fill="none" stroke="#ff0000" stroke-width=".4275" d="M315.9027,-254.5842C328.1212,-220.4528 345.3963,-172.1965 359.5403,-132.6865"/>
<polygon fill="#ff0000" stroke="#ff0000" stroke-width=".4275" points="362.8952,-133.6992 362.9704,-123.1046 356.3048,-131.3398 362.8952,-133.6992"/>
</g>
<!-- Signal1 in&#45;&gt;Morphogen1 V -->
<g id="edge31" class="edge">
<title>Signal1 in&#45;&gt;Morphogen1 V</title>
<path fill="none" stroke="#006400" stroke-width=".4475" d="M330.1897,-262.5951C338.2347,-253.3292 347.0321,-243.4321 355.3979,-234.4975 394.3652,-192.8812 440.3049,-147.5706 475.0475,-114.0161"/>
<polygon fill="#006400" stroke="#006400" stroke-width=".4475" points="477.514,-116.4999 482.2847,-107.0399 472.6559,-111.4601 477.514,-116.4999"/>
</g>
<!-- Signal1 in&#45;&gt;Signal0 out -->
<g id="edge42" class="edge">
<title>Signal1 in&#45;&gt;Signal0 out</title>
<path fill="none" stroke="#ff0000" stroke-width=".4737" d="M327.894,-260.6675C336.0204,-251.3111 345.4318,-241.8513 355.3979,-234.4975 451.1513,-163.8429 503.3859,-195.4139 600.3979,-126.4975 607.3491,-121.5595 614.1192,-115.7004 620.4467,-109.5718"/>
<polygon fill="#ff0000" stroke="#ff0000" stroke-width=".4737" points="623.1058,-111.8607 627.6556,-102.2925 618.1321,-106.9351 623.1058,-111.8607"/>
</g>
<!-- Signal1 in&#45;&gt;Signal1 out -->
<g id="edge53" class="edge">
<title>Signal1 in&#45;&gt;Signal1 out</title>
<path fill="none" stroke="#ff0000" stroke-width=".2824" d="M327.0144,-260.1382C335.2034,-250.6711 344.8661,-241.2882 355.3979,-234.4975 496.8635,-143.2838 575.3105,-215.1453 718.3979,-126.4975 725.6462,-122.007 732.5817,-116.3969 738.9865,-110.3848"/>
<polygon fill="#ff0000" stroke="#ff0000" stroke-width=".2824" points="741.611,-112.7114 746.2484,-103.1854 736.6827,-107.7402 741.611,-112.7114"/>
</g>
<!-- Signal1 in&#45;&gt;Signal2 out -->
<g id="edge64" class="edge">
<title>Signal1 in&#45;&gt;Signal2 out</title>
<path fill="none" stroke="#006400" stroke-width=".2387" d="M326.4307,-259.9876C334.6773,-250.404 344.5153,-240.9993 355.3979,-234.4975 543.4865,-122.1248 646.3134,-235.46 836.3979,-126.4975 843.8889,-122.2034 850.9914,-116.6475 857.5018,-110.6131"/>
<polygon fill="#006400" stroke="#006400" stroke-width=".2387" points="860.1977,-112.8702 864.8605,-103.3565 855.2826,-107.886 860.1977,-112.8702"/>
</g>
<!-- Signal2 in -->
<g id="node10" class="node">
<title>Signal2 in</title>
<ellipse fill="#d3d3d3" stroke="#000000" cx="410.3979" cy="-297.8955" rx="45.9267" ry="45.9267"/>
<text text-anchor="middle" x="410.3979" y="-294.2955" font-family="Times,serif" font-size="12.00" fill="#000000">Signal2 in</text>
</g>
<!-- Signal2 in&#45;&gt;Growth -->
<g id="edge10" class="edge">
<title>Signal2 in&#45;&gt;Growth</title>
<path fill="none" stroke="#006400" stroke-width=".2494" d="M386.2956,-258.6209C359.9292,-215.6571 317.8793,-147.1371 291.2283,-103.7097"/>
<polygon fill="#006400" stroke="#006400" stroke-width=".2494" points="294.1631,-101.8003 285.9495,-95.1079 288.197,-105.4616 294.1631,-101.8003"/>
</g>
<!-- Signal2 in&#45;&gt;Morphogen0 V -->
<g id="edge21" class="edge">
<title>Signal2 in&#45;&gt;Morphogen0 V</title>
<path fill="none" stroke="#ff0000" stroke-width=".2316" d="M405.3231,-252.0962C401.6739,-219.1622 396.6773,-174.0688 392.4819,-136.2054"/>
<polygon fill="#ff0000" stroke="#ff0000" stroke-width=".2316" points="395.958,-135.7955 391.3779,-126.2419 389.0006,-136.5665 395.958,-135.7955"/>
</g>
<!-- Signal2 in&#45;&gt;Morphogen1 V -->
<g id="edge32" class="edge">
<title>Signal2 in&#45;&gt;Morphogen1 V</title>
<path fill="none" stroke="#006400" stroke-width=".2268" d="M431.087,-256.7546C448.846,-221.4402 474.7637,-169.902 495.3869,-128.8922"/>
<polygon fill="#006400" stroke="#006400" stroke-width=".2268" points="498.6035,-130.2861 499.9694,-119.7797 492.3498,-127.1412 498.6035,-130.2861"/>
</g>
<!-- Signal2 in&#45;&gt;Signal0 out -->
<g id="edge43" class="edge">
<title>Signal2 in&#45;&gt;Signal0 out</title>
<path fill="none" stroke="#ff0000" stroke-width=".4349" d="M439.5671,-261.9805C447.6169,-252.7193 456.5723,-242.9783 465.3979,-234.4975 520.8018,-181.2584 544.0429,-178.7289 600.3979,-126.4975 606.5724,-120.7749 612.8721,-114.5253 618.946,-108.2542"/>
<polygon fill="#ff0000" stroke="#ff0000" stroke-width=".4349" points="621.5801,-110.5636 625.9515,-100.9127 616.5158,-105.7311 621.5801,-110.5636"/>
</g>
<!-- Signal2 in&#45;&gt;Signal1 out -->
<g id="edge54" class="edge">
<title>Signal2 in&#45;&gt;Signal1 out</title>
<path fill="none" stroke="#006400" stroke-width=".2498" d="M437.8364,-260.5891C445.963,-251.2328 455.3889,-241.7928 465.3979,-234.4975 564.2001,-162.4845 618.3131,-196.7171 718.3979,-126.4975 725.3779,-121.6004 732.1641,-115.764 738.4991,-109.646"/>
<polygon fill="#006400" stroke="#006400" stroke-width=".2498" points="741.1551,-111.9383 745.7131,-102.3741 736.1856,-107.0084 741.1551,-111.9383"/>
</g>
<!-- Signal2 in&#45;&gt;Signal2 out -->
<g id="edge65" class="edge">
<title>Signal2 in&#45;&gt;Signal2 out</title>
<path fill="none" stroke="#ff0000" stroke-width=".4256" d="M436.9879,-260.0971C445.1768,-250.6298 454.8461,-241.2571 465.3979,-234.4975 610.0042,-141.8619 690.1445,-216.5103 836.3979,-126.4975 843.7513,-121.9718 850.778,-116.2883 857.2536,-110.1954"/>
<polygon fill="#ff0000" stroke="#ff0000" stroke-width=".4256" points="859.967,-112.4331 864.589,-102.8996 855.0306,-107.47 859.967,-112.4331"/>
</g>
<!-- Bias -->
<g id="node11" class="node">
<title>Bias</title>
<ellipse fill="#d3d3d3" stroke="#000000" cx="500.3979" cy="-297.8955" rx="26.2986" ry="26.2986"/>
<text text-anchor="middle" x="500.3979" y="-294.2955" font-family="Times,serif" font-size="12.00" fill="#000000">Bias</text>
</g>
<!-- Bias&#45;&gt;Growth -->
<g id="edge11" class="edge">
<title>Bias&#45;&gt;Growth</title>
<path fill="none" stroke="#006400" stroke-width=".2826" d="M490.0786,-273.3618C484.0584,-260.8585 475.6299,-245.9245 465.3979,-234.4975 409.8738,-172.4889 371.6684,-184.9356 312.3979,-126.4975 305.219,-119.4195 298.3348,-111.1266 292.1783,-102.919"/>
<polygon fill="#006400" stroke="#006400" stroke-width=".2826" points="294.9851,-100.8276 286.2803,-94.788 289.3188,-104.9378 294.9851,-100.8276"/>
</g>
<!-- Bias&#45;&gt;Morphogen0 V -->
<g id="edge22" class="edge">
<title>Bias&#45;&gt;Morphogen0 V</title>
<path fill="none" stroke="#ff0000" stroke-width=".4413" d="M488.6369,-274.105C472.0247,-240.5016 441.0516,-177.8488 417.1681,-129.5368"/>
<polygon fill="#ff0000" stroke="#ff0000" stroke-width=".4413" points="420.2136,-127.7994 412.6443,-120.3861 413.9385,-130.9016 420.2136,-127.7994"/>
</g>
<!-- Bias&#45;&gt;Morphogen1 V -->
<g id="edge33" class="edge">
<title>Bias&#45;&gt;Morphogen1 V</title>
<path fill="none" stroke="#ff0000" stroke-width=".6224" d="M503.5555,-271.4346C507.4462,-238.8292 514.2157,-182.0996 519.7064,-136.0861"/>
<polygon fill="#ff0000" stroke="#ff0000" stroke-width=".6224" points="523.1831,-136.4885 520.8927,-126.1442 516.2324,-135.6591 523.1831,-136.4885"/>
</g>
<!-- Bias&#45;&gt;Signal0 out -->
<g id="edge44" class="edge">
<title>Bias&#45;&gt;Signal0 out</title>
<path fill="none" stroke="#006400" stroke-width=".2845" d="M512.5306,-274.3141C518.9805,-262.2071 527.2455,-247.3414 535.3979,-234.4975 562.5991,-191.6434 596.5942,-145.1196 622.107,-111.3943"/>
<polygon fill="#006400" stroke="#006400" stroke-width=".2845" points="625.1408,-113.1865 628.4013,-103.1058 619.5661,-108.953 625.1408,-113.1865"/>
</g>
<!-- Bias&#45;&gt;Signal1 out -->
<g id="edge55" class="edge">
<title>Bias&#45;&gt;Signal1 out</title>
<path fill="none" stroke="#006400" stroke-width=".3121" d="M510.1965,-273.3207C516.1206,-260.6569 524.6213,-245.5883 535.3979,-234.4975 601.2118,-166.7654 644.7645,-185.6349 718.3979,-126.4975 724.9617,-121.2259 731.4802,-115.2299 737.6584,-109.0796"/>
<polygon fill="#006400" stroke="#006400" stroke-width=".3121" points="740.2598,-111.4252 744.7372,-101.8229 735.249,-106.5373 740.2598,-111.4252"/>
</g>
<!-- Bias&#45;&gt;Signal2 out -->
<g id="edge66" class="edge">
<title>Bias&#45;&gt;Signal2 out</title>
<path fill="none" stroke="#006400" stroke-width=".3062" d="M509.2511,-272.7732C514.9463,-259.7957 523.5288,-244.6054 535.3979,-234.4975 643.6048,-142.3468 717.6936,-204.6627 836.3979,-126.4975 843.5192,-121.8083 850.3841,-116.0876 856.7559,-110.0237"/>
<polygon fill="#006400" stroke="#006400" stroke-width=".3062" points="859.396,-112.3334 863.9951,-102.7889 854.4477,-107.3821 859.396,-112.3334"/>
</g>
</g>
</svg>
